HIERARCHY
ROOT Hips
{
	OFFSET 0.00000 0.00000 0.00000
	CHANNELS 6 Xposition Yposition Zposition Zrotation Yrotation Xrotation 
	JOINT LHipJoint
	{
		OFFSET 0 0 0
		CHANNELS 3 Zrotation Yrotation Xrotation
		JOINT LeftUpLeg
		{
			OFFSET 1.09156 -1.61406 0.76500
			CHANNELS 3 Zrotation Yrotation Xrotation
			JOINT LeftLeg
			{
				OFFSET 2.33750 -6.42225 0.00000
				CHANNELS 3 Zrotation Yrotation Xrotation
				JOINT LeftFoot
				{
					OFFSET 2.49247 -6.84800 0.00000
					CHANNELS 3 Zrotation Yrotation Xrotation
					JOINT LeftToeBase
					{
						OFFSET 0.15312 -0.42069 1.45461
						CHANNELS 3 Zrotation Yrotation Xrotation
						End Site
						{
							OFFSET 0.00000 -0.00000 0.77046
						}
					}
				}
			}
		}
	}
	JOINT RHipJoint
	{
		OFFSET 0 0 0
		CHANNELS 3 Zrotation Yrotation Xrotation
		JOINT RightUpLeg
		{
			OFFSET -0.99883 -1.61406 0.76500
			CHANNELS 3 Zrotation Yrotation Xrotation
			JOINT RightLeg
			{
				OFFSET -2.36877 -6.50815 0.00000
				CHANNELS 3 Zrotation Yrotation Xrotation
				JOINT RightFoot
				{
					OFFSET -2.53452 -6.96353 0.00000
					CHANNELS 3 Zrotation Yrotation Xrotation
					JOINT RightToeBase
					{
						OFFSET -0.13156 -0.36145 1.63237
						CHANNELS 3 Zrotation Yrotation Xrotation
						End Site
						{
							OFFSET -0.00000 -0.00000 0.84979
						}
					}
				}
			}
		}
	}
	JOINT LowerBack
	{
		OFFSET 0 0 0
		CHANNELS 3 Zrotation Yrotation Xrotation
		JOINT Spine
		{
			OFFSET -0.02431 1.98242 -0.13616
			CHANNELS 3 Zrotation Yrotation Xrotation
			JOINT Spine1
			{
				OFFSET 0.03629 1.98974 -0.02954
				CHANNELS 3 Zrotation Yrotation Xrotation
				JOINT Neck
				{
					OFFSET 0 0 0
					CHANNELS 3 Zrotation Yrotation Xrotation
					JOINT Neck1
					{
						OFFSET 0.09349 1.40783 0.22333
						CHANNELS 3 Zrotation Yrotation Xrotation
						JOINT Head
						{
							OFFSET -0.04273 1.44500 -0.06495
							CHANNELS 3 Zrotation Yrotation Xrotation
							End Site
							{
								OFFSET -0.02251 1.44600 -0.04544
							}
						}
					}
				}
				JOINT LeftShoulder
				{
					OFFSET 0 0 0
					CHANNELS 3 Zrotation Yrotation Xrotation
					JOINT LeftArm
					{
						OFFSET 3.49137 0.85126 -0.29740
						CHANNELS 3 Zrotation Yrotation Xrotation
						JOINT LeftForeArm
						{
							OFFSET 5.06035 -0.00000 0.00000
							CHANNELS 3 Zrotation Yrotation Xrotation
							JOINT LeftHand
							{
								OFFSET 3.14780 -0.00000 0.00000
								CHANNELS 3 Zrotation Yrotation Xrotation
								JOINT LeftFingerBase
								{
									OFFSET 0 0 0
									CHANNELS 3 Zrotation Yrotation Xrotation
									JOINT LeftHandIndex1
									{
										OFFSET 0.60675 -0.00000 0.00000
										CHANNELS 3 Zrotation Yrotation Xrotation
										End Site
										{
											OFFSET 0.48918 -0.00000 0.00000
										}
									}
								}
								JOINT LThumb
								{
									OFFSET 0 0 0
									CHANNELS 3 Zrotation Yrotation Xrotation
									End Site
									{
										OFFSET 0.49664 -0.00000 0.49664
									}
								}
							}
						}
					}
				}
				JOINT RightShoulder
				{
					OFFSET 0 0 0
					CHANNELS 3 Zrotation Yrotation Xrotation
					JOINT RightArm
					{
						OFFSET -3.28101 0.69707 0.00747
						CHANNELS 3 Zrotation Yrotation Xrotation
						JOINT RightForeArm
						{
							OFFSET -5.12273 -0.00000 -0.00000
							CHANNELS 3 Zrotation Yrotation Xrotation
							JOINT RightHand
							{
								OFFSET -3.42200 -0.00000 0.00000
								CHANNELS 3 Zrotation Yrotation Xrotation
								JOINT RightFingerBase
								{
									OFFSET 0 0 0
									CHANNELS 3 Zrotation Yrotation Xrotation
									JOINT RightHandIndex1
									{
										OFFSET -0.70460 -0.00000 0.00000
										CHANNELS 3 Zrotation Yrotation Xrotation
										End Site
										{
											OFFSET -0.56807 -0.00000 0.00000
										}
									}
								}
								JOINT RThumb
								{
									OFFSET 0 0 0
									CHANNELS 3 Zrotation Yrotation Xrotation
									End Site
									{
										OFFSET -0.57674 -0.00000 0.57674
									}
								}
							}
						}
					}
				}
			}
		}
	}
}
MOTION
Frames: 6
Frame Time: .0083333
-14.6284 14.0662 -6.3890 -19.1974 87.6468 25.2408 0.0000 0.0000 0.0000 5.4625 -16.6529 -90.7184 16.9561 19.7764 81.0682 3.3181 -11.1560 -32.9337 1.4521 7.6171 21.5569 0.0000 0.0000 0.0000 18.8587 10.7693 -44.4411 -7.5798 -15.8013 51.0347 -5.7118 -8.8043 -48.5270 -0.3728 3.9219 -10.8570 -5.6770 1.1825 40.1105 -3.1708 -0.8622 4.2324 -0.1910 0.1285 -14.7777 -1.1088 1.4521 -9.1834 8.4366 2.3300 -3.3681 2.9707 1.3970 0.3976 0.0000 0.0000 0.0000 57.9794 -77.8166 -88.7573 7.4332 -12.6300 -0.8237 -0.0000 -0.0000 44.5054 78.6817 52.8142 75.8973 -7.1250 0.0000 -0.0000 161.8784 -68.1006 -169.8163 0.0000 0.0000 0.0000 -43.0220 86.3508 -70.2377 -13.4313 21.9159 -2.6121 0.0000 0.0000 20.6242 -97.4743 -46.6817 100.2220 7.1250 -0.0000 -0.0000 -26.1070 64.1838 -35.0636
-14.5495 14.0749 -6.4080 -23.0227 87.7487 21.3210 0.0000 0.0000 0.0000 6.1298 -16.4891 -91.3731 16.6393 19.7270 80.1310 3.3031 -11.4055 -32.8567 1.4053 7.4986 21.2012 0.0000 0.0000 0.0000 19.0269 10.8042 -43.7363 -7.4945 -15.7346 50.7208 -5.8383 -8.5728 -48.9157 -0.3286 3.6843 -10.1901 -5.6625 1.1668 40.0080 -3.0851 -0.8254 4.4321 -0.1180 0.1421 -14.5034 -1.2686 1.4741 -9.3436 8.6190 2.3708 -3.2713 3.0685 1.4289 0.4517 0.0000 0.0000 0.0000 58.7576 -77.5472 -89.9632 7.3612 -12.5122 -0.8081 -0.0000 -0.0000 45.0793 78.2279 52.6982 75.3189 -7.1250 0.0000 -0.0000 161.5084 -68.4446 -169.4599 0.0000 0.0000 0.0000 -46.9911 86.1131 -74.0279 -13.3734 21.8318 -2.5905 0.0000 0.0000 20.3784 -97.4742 -46.4634 100.2581 7.1250 -0.0000 -0.0000 -26.4441 64.1613 -35.5266
-14.4704 14.0807 -6.4312 -30.7261 87.8672 13.4248 0.0000 0.0000 0.0000 6.9051 -16.3659 -91.9117 16.3412 19.6760 79.2467 3.2749 -11.4506 -32.7118 1.4224 7.5422 21.3319 0.0000 0.0000 0.0000 19.3625 10.7301 -42.9143 -7.3936 -15.6545 50.3475 -5.9257 -8.3693 -49.1665 -0.2624 3.2957 -9.1032 -5.4699 1.1304 40.0819 -2.9865 -0.7529 4.6074 -0.1423 0.1648 -14.3273 -1.2066 1.4699 -9.3624 8.6194 2.3609 -3.2837 3.0570 1.4240 0.4519 0.0000 0.0000 0.0000 59.7628 -77.3632 -91.4124 7.3159 -12.4379 -0.7983 -0.0000 -0.0000 45.7089 78.2744 52.7390 75.3836 -7.1250 0.0000 -0.0000 161.6058 -68.4030 -169.5340 0.0000 0.0000 0.0000 -50.2262 85.9253 -77.4511 -13.2867 21.7059 -2.5583 0.0000 0.0000 20.3973 -96.2483 -46.4888 98.5849 7.1250 -0.0000 -0.0000 -25.5795 63.0945 -34.6074
-14.4110 13.9553 -6.4653 -34.1326 87.9324 9.9914 0.0000 0.0000 0.0000 7.8369 -16.2677 -93.3789 16.2666 19.6625 79.0249 3.2508 -11.1603 -32.5856 1.2850 7.1832 20.2593 0.0000 0.0000 0.0000 19.3665 10.7603 -42.5953 -7.4087 -15.6666 50.4038 -5.9547 -8.6410 -49.3830 -0.2448 3.1837 -8.7906 -5.3660 1.0820 40.0347 -2.9928 -0.7563 4.6797 -0.2003 0.1574 -14.2291 -1.1002 1.4802 -9.2833 8.6360 2.3605 -3.2287 3.0419 1.4221 0.4566 0.0000 -0.0000 0.0000 60.3817 -77.3216 -92.5538 7.2704 -12.3634 -0.7885 -0.0000 -0.0000 46.3846 77.9367 52.2908 74.8831 -7.1250 0.0000 -0.0000 160.5709 -68.7402 -168.7820 0.0000 -0.0000 0.0000 -50.3656 85.9184 -77.8410 -13.3347 21.7756 -2.5761 0.0000 0.0000 20.5670 -95.2325 -46.6059 97.1831 7.1250 -0.0000 -0.0000 -24.7548 62.2217 -33.6712
-14.3286 13.9548 -6.4834 -35.6634 87.8406 8.4558 0.0000 0.0000 0.0000 8.3591 -16.0262 -93.8985 16.0163 19.6152 78.2803 3.2835 -11.1957 -32.7552 1.3662 7.3978 20.8995 0.0000 0.0000 0.0000 19.3847 10.9481 -42.0119 -7.3041 -15.5827 50.0153 -5.8241 -9.6554 -49.3047 -0.2974 3.5067 -9.6929 -5.5293 1.1707 39.9661 -2.9799 -0.7044 4.7148 -0.1237 0.1864 -14.1589 -1.0352 1.5448 -9.2843 8.6677 2.4251 -3.0311 3.0452 1.4584 0.5170 -0.0000 -0.0000 0.0000 60.8538 -77.2698 -93.2154 7.1999 -12.2477 -0.7735 -0.0000 -0.0000 46.7087 77.6421 52.0447 74.4712 -7.1250 0.0000 -0.0000 159.9510 -69.0035 -168.2956 -0.0000 -0.0000 0.0000 -49.5465 85.8646 -76.7391 -13.4232 21.9042 -2.6091 0.0000 0.0000 20.3560 -95.9528 -46.4016 98.1934 7.1250 -0.0000 -0.0000 -25.5116 62.8243 -34.5769
-14.2458 13.9630 -6.5096 -36.3989 87.8124 7.6897 0.0000 0.0000 0.0000 8.7037 -15.8537 -94.3686 15.7787 19.5673 77.5717 3.2901 -10.9643 -32.7893 1.4889 7.7087 21.8328 0.0000 0.0000 0.0000 19.3533 10.9771 -41.4379 -7.2045 -15.5017 49.6435 -5.7543 -10.2629 -49.3000 -0.3340 3.7143 -10.2742 -5.5946 1.1808 40.0123 -2.9664 -0.7123 4.7615 -0.0719 0.1871 -14.1168 -0.9336 1.5779 -9.4500 8.6539 2.4371 -2.7885 3.0287 1.4723 0.6241 -0.0000 0.0000 0.0000 61.3668 -77.1076 -93.7188 7.1228 -12.1213 -0.7572 -0.0000 -0.0000 46.8545 78.2341 52.5411 75.2971 -7.1250 0.0000 -0.0000 161.1869 -68.4746 -169.2591 -0.0000 0.0000 0.0000 -51.4611 85.7952 -78.6433 -13.3330 21.7732 -2.5755 0.0000 0.0000 20.3440 -96.7593 -46.1042 99.3401 7.1250 -0.0000 -0.0000 -26.4944 63.4947 -35.7617
